<svg width="196" height="145" viewBox="0 0 196 145" fill="none" xmlns="http://www.w3.org/2000/svg">
<path d="M194.5 44.5C194.5 56.4741 183.899 67.4752 166.381 75.5118C148.906 83.5284 124.731 88.5 98 88.5C71.2693 88.5 47.0935 83.5284 29.6191 75.5118C12.1012 67.4752 1.5 56.4741 1.5 44.5C1.5 32.5259 12.1012 21.5248 29.6191 13.4882C47.0935 5.4716 71.2693 0.5 98 0.5C124.731 0.5 148.906 5.4716 166.381 13.4882C183.899 21.5248 194.5 32.5259 194.5 44.5Z" fill="black" stroke="white"/>
<path d="M193.01 107.278C171.621 156.491 29.8513 155.487 1 108.785V43C17.4154 108.785 186.544 97.737 195 43L193.01 107.278Z" fill="black" stroke="white" stroke-width="2"/>
</svg>
