<svg width="288" height="340" viewBox="0 0 288 340" fill="none" xmlns="http://www.w3.org/2000/svg">
<rect x="1.5" y="112.5" width="88" height="112" fill="#D9D9D9" stroke="black" stroke-width="3"/>
<rect x="1.5" y="227.5" width="41.1" height="111" fill="#D9D9D9" stroke="black" stroke-width="3"/>
<rect x="45.6" y="227.5" width="57.9" height="111" fill="#D9D9D9" stroke="black" stroke-width="3"/>
<rect x="19" y="135" width="5" height="12" fill="black"/>
<rect x="20" y="157" width="5" height="12" fill="black"/>
<rect x="20" y="179" width="5" height="12" fill="black"/>
<rect x="20" y="202" width="5" height="12" fill="black"/>
<rect x="31" y="135" width="25" height="12" fill="black"/>
<rect x="32" y="157" width="25" height="12" fill="black"/>
<rect x="32" y="179" width="25" height="12" fill="black"/>
<rect x="32" y="202" width="25" height="12" fill="black"/>
<rect x="16" y="84" width="5" height="12" fill="black"/>
<rect x="61" y="135" width="5" height="12" fill="black"/>
<rect x="62" y="157" width="5" height="12" fill="black"/>
<rect x="62" y="179" width="5" height="12" fill="black"/>
<rect x="62" y="202" width="5" height="12" fill="black"/>
<rect x="26" y="231" width="38" height="12" fill="black"/>
<rect x="27.5" y="255.5" width="37" height="84" fill="black" stroke="white"/>
<path d="M79.5 83V113H10V83H19V74.5H24.5V68H64V74.5H71V80L79.5 83Z" fill="#D9D9D9"/>
<path d="M79.5 83V113H10V83H19M79.5 83L71 80V74.5H64V68H24.5V74.5H19V83M79.5 83H19" stroke="black" stroke-width="3"/>
<rect x="30" y="94" width="28" height="12" fill="black"/>
<rect x="106.5" y="183.5" width="39" height="155" fill="#D9D9D9" stroke="black" stroke-width="3"/>
<rect x="148.5" y="134.5" width="94" height="204" fill="#D9D9D9" stroke="black" stroke-width="3"/>
<rect x="181" y="255" width="5" height="12" fill="black"/>
<rect x="169" y="255" width="5" height="12" fill="black"/>
<rect x="130" y="205" width="5" height="12" fill="black"/>
<rect x="118" y="205" width="5" height="12" fill="black"/>
<rect x="130" y="230" width="5" height="12" fill="black"/>
<rect x="118" y="230" width="5" height="12" fill="black"/>
<rect x="130" y="255" width="5" height="12" fill="black"/>
<rect x="118" y="255" width="5" height="12" fill="black"/>
<rect x="130" y="280" width="5" height="12" fill="black"/>
<rect x="118" y="280" width="5" height="12" fill="black"/>
<rect x="130" y="305" width="5" height="12" fill="black"/>
<rect x="118" y="305" width="5" height="12" fill="black"/>
<rect x="181" y="230" width="5" height="12" fill="black"/>
<rect x="169" y="230" width="5" height="12" fill="black"/>
<rect x="179" y="205" width="5" height="12" fill="black"/>
<rect x="167" y="205" width="5" height="12" fill="black"/>
<rect x="178" y="180" width="5" height="12" fill="black"/>
<rect x="166" y="180" width="5" height="12" fill="black"/>
<rect x="219" y="180" width="5" height="12" fill="black"/>
<rect x="207" y="180" width="5" height="12" fill="black"/>
<rect x="219" y="205" width="5" height="12" fill="black"/>
<rect x="207" y="205" width="5" height="12" fill="black"/>
<rect x="219" y="230" width="5" height="12" fill="black"/>
<rect x="207" y="230" width="5" height="12" fill="black"/>
<rect x="219" y="255" width="5" height="12" fill="black"/>
<rect x="207" y="255" width="5" height="12" fill="black"/>
<rect x="116.5" y="121.5" width="29" height="59" fill="#D9D9D9" stroke="black" stroke-width="3"/>
<rect x="147.5" y="121.5" width="29" height="10" fill="#D9D9D9" stroke="black" stroke-width="3"/>
<path d="M193.5 135V78C179.995 76.5011 176.911 72.7495 171.5 66H178V60V59H170L180 41H190.5V0.5H200.5V39.5L201 41H211.5L222.5 57.5L170 59H178V60L215.5 59V66H220C216.695 71.8027 216.99 75.9954 205 78H203V135H193.5Z" fill="#F94545"/>
<path d="M193.5 78V135H203V78H193.5ZM193.5 78H205C216.99 75.9954 216.695 71.8027 220 66H215.5M193.5 78C179.995 76.5011 176.911 72.7495 171.5 66H178M215.5 66V59L178 60M215.5 66H178M178 66V60M170 59H178V60M170 59L222.5 57.5L211.5 41H201M170 59L180 41H190.5M190.5 41V0.5H200.5C200.5 13.1667 200.5 38.7 200.5 39.5L201 41M190.5 41H201" stroke="black"/>
<rect x="134" y="133" width="5" height="12" fill="black"/>
<rect x="122" y="133" width="5" height="12" fill="black"/>
<rect x="134" y="156" width="5" height="12" fill="black"/>
<rect x="122" y="156" width="5" height="12" fill="black"/>
<circle cx="44.5" cy="75.5" r="5.5" fill="black"/>
<rect x="174" y="158" width="38" height="12" fill="black"/>
<rect x="174" y="274" width="38" height="12" fill="black"/>
<rect x="245.5" y="243.5" width="41" height="95" fill="#D9D9D9" stroke="black" stroke-width="3"/>
<rect x="250" y="274" width="31" height="12" fill="black"/>
<rect x="250" y="293" width="31" height="12" fill="black"/>
<rect x="250" y="252" width="31" height="12" fill="black"/>
<path d="M231 90V134H244V242.5H270V90H231Z" fill="#D9D9D9" stroke="black" stroke-width="3"/>
<rect x="258" y="101" width="5" height="12" fill="black"/>
<rect x="246" y="101" width="5" height="12" fill="black"/>
<rect x="259" y="135" width="5" height="12" fill="black"/>
<rect x="247" y="135" width="5" height="12" fill="black"/>
<rect x="260" y="169" width="5" height="12" fill="black"/>
<rect x="248" y="169" width="5" height="12" fill="black"/>
<rect x="261" y="203" width="5" height="12" fill="black"/>
<rect x="249" y="203" width="5" height="12" fill="black"/>
</svg>
